<svg width="32" height="32" viewBox="0 0 32 32" fill="none" xmlns="http://www.w3.org/2000/svg">
<rect width="32" height="32" rx="4" fill="#F05138"/>
<path d="M6.96875 21.0938L7.09375 23.375C7.09375 23.5 7.08333 23.7292 7.0625 24.0625C7.0625 24.3958 6.9375 24.6979 6.6875 24.9688C6.45833 25.2188 6.16667 25.3438 5.8125 25.3438C5.47917 25.3438 5.21875 25.3333 5.03125 25.3125C4.34375 25.3125 4 25.0104 4 24.4062C4 23.9062 4.22917 21.8958 4.6875 18.375C5.14583 14.8333 5.4375 12.5521 5.5625 11.5312C5.6875 10.5104 5.79167 9.65625 5.875 8.96875C5.97917 8.26042 6.05208 7.73958 6.09375 7.40625C6.13542 7.07292 6.19792 6.73958 6.28125 6.40625C6.36458 6.07292 6.48958 5.80208 6.65625 5.59375C6.96875 5.19792 7.57292 5 8.46875 5C9.96875 5.75 11.5104 7.875 13.0938 11.375C14.2188 13.875 14.9688 15.4583 15.3438 16.125C15.7188 16.7917 16.0833 17.25 16.4375 17.5L22.6875 6.625C23.125 6.3125 23.4583 6.15625 23.6875 6.15625C24.3542 6.15625 24.8646 6.45833 25.2188 7.0625C25.5729 7.66667 25.8646 8.40625 26.0938 9.28125C26.3438 10.1354 26.5521 11.0833 26.7188 12.125C26.9062 13.1667 27.0625 14.2604 27.1875 15.4062C27.3333 16.5312 27.4688 17.6354 27.5938 18.7188C27.8854 21.3229 28.1042 22.9583 28.25 23.625C28.4167 24.2917 28.5 24.7708 28.5 25.0625C28.5 25.3333 28.4062 25.6042 28.2188 25.875C28.0312 26.125 27.7708 26.25 27.4375 26.25C27.1042 26.25 26.7708 26.125 26.4375 25.875C26.1042 25.6042 25.8958 25.2812 25.8125 24.9062C25.75 24.5104 25.6771 24 25.5938 23.375C25.5312 22.75 25.4479 22.0521 25.3438 21.2812C25.2396 20.4896 25.1354 19.6667 25.0312 18.8125C24.9271 17.9375 24.8229 17.1042 24.7188 16.3125C24.6146 15.5208 24.5208 14.8229 24.4375 14.2188C24.3542 13.5938 24.2917 13.125 24.25 12.8125C24.25 12.3958 24.2396 12.0104 24.2188 11.6562C24.1979 11.3021 24.1146 11.0833 23.9688 11C23.8229 10.9167 23.5938 11.0208 23.2812 11.3125C22.9896 11.5833 22.5729 12.1458 22.0312 13C20.8646 14.8125 19.1771 17.8646 16.9688 22.1562C16.6771 22.6771 16.2917 22.7917 15.8125 22.5C15.25 22.1875 14.7708 21.3854 14.375 20.0938L8.625 7.875C8.125 8.875 7.66667 12.1875 7.25 17.8125C7.1875 18.5 7.14583 19.0833 7.125 19.5625C7.02083 20.0833 6.96875 20.5938 6.96875 21.0938Z" fill="white"/>
</svg>
